HIERARCHY
ROOT pelvis
{
  OFFSET 0 100 0
  CHANNELS 6 Xposition Yposition Zposition Zrotation Xrotation Yrotation
  JOINT pelvis_right_femur
  {
    OFFSET -10.78128 -3.44521 -0.5502486
    CHANNELS 3 Zrotation Xrotation Yrotation
    JOINT right_femur_tibia
    {
      OFFSET -0.8047443 -44.0398 -0.1307829
      CHANNELS 3 Zrotation Xrotation Yrotation
      JOINT right_tibia_foot
      {
        OFFSET 3.006224 -47.83518 -5
        CHANNELS 3 Zrotation Xrotation Yrotation
        End Site
        {
          OFFSET 0 -5 15
        }
      }
    }
  }
  JOINT pelvis_left_femur
  {
    OFFSET 10.78128 -3.44521 -0.5502486
    CHANNELS 3 Zrotation Xrotation Yrotation
    JOINT left_femur_tibia
    {
      OFFSET 0.8047443 -44.0398 -0.1307829
      CHANNELS 3 Zrotation Xrotation Yrotation
      JOINT left_tibia_foot
      {
        OFFSET -4.370144 -48.10324 -4.275266
        CHANNELS 3 Zrotation Xrotation Yrotation
        End Site
        {
          OFFSET 0 -5 15
        }
      }
    }
  }
  JOINT pelvis_spine1
  {
    OFFSET 0 6.468898 -3.129235
    CHANNELS 3 Zrotation Xrotation Yrotation
    JOINT spine1
    {
      OFFSET 0 23.15396 4.99043
      CHANNELS 3 Zrotation Xrotation Yrotation
      JOINT spine2
      {
        OFFSET 0 20.79997 -5.064912
        CHANNELS 3 Zrotation Xrotation Yrotation
        JOINT neck
        {
          OFFSET 0 14.38658 9.616178
          CHANNELS 3 Zrotation Xrotation Yrotation
          End Site
          {
            OFFSET 0 20 0
          }
        }
      }
      JOINT right_manubrium
      {
        OFFSET -5.722621 16.35077 3.967754
        CHANNELS 3 Zrotation Xrotation Yrotation
        JOINT right_clavicle
        {
          OFFSET -13.16364 1.694482 -4.693211
          CHANNELS 3 Zrotation Xrotation Yrotation
          JOINT right_humerus
          {
            OFFSET -28.5034 -0.3100689 -2.792744
            CHANNELS 3 Zrotation Xrotation Yrotation
            JOINT right_radius
            {
              OFFSET -25.15693 0.02248979 -1.271978
              CHANNELS 3 Zrotation Xrotation Yrotation
              End Site
              {
                OFFSET -15 0 0
              }
            }
          }
        }
      }
      JOINT left_manubrium
      {
        OFFSET 5.722621 16.35077 3.967754
        CHANNELS 3 Zrotation Xrotation Yrotation
        JOINT left_clavicle
        {
          OFFSET 13.16364 1.694482 -4.693211
          CHANNELS 3 Zrotation Xrotation Yrotation
          JOINT left_humerus
          {
            OFFSET 29.39168 -1.063119 -2.237045
            CHANNELS 3 Zrotation Xrotation Yrotation
            JOINT left_radius
            {
              OFFSET 24.59957 -0.9528479 0.9047498
              CHANNELS 3 Zrotation Xrotation Yrotation
              End Site
              {
                OFFSET 15 -0 -0
              }
            }
          }
        }
      }
    }
  }
}
MOTION
Frames: 7
Frame Time: 0.0416666666667
0 103.5113 0 2.236651 -1.168656 0.2892202 1.128258 -9.645956 8.650723 -0 33.71383 -0 -5.245912 -17.94206 -2.162892 -8.080433 9.9017 -23.38479 -0 5.51509 -0 7.57078 -16.00495 26.44897 -4.346779 -5.115108 5.005719 2.000035 9.209046 -7.714854 0.8295832 22.83206 7.163136 3.249884 -23.03954 8.776563 6.356508 -19.72678 11.57695 86.32483 35.95512 -19.78304 -0 0 16.22285 -7.620042 8.266763 4.635774 5.494751 -19.47869 -1.685327 -94.76734 29.72895 22.89836 0 0 -15.94897 3.481417 17.88997 9.560755
0.3445039 104.2342 1.450679 2.190277 -1.021538 0.5123182 1.178159 -9.735573 8.423295 -0 32.21902 -0 -5.256774 -17.57724 -1.883806 -8.023469 9.662008 -23.05784 -0 6.262666 -0 7.243931 -15.96839 26.05927 -4.29177 -5.045634 5.038846 2.034443 9.175638 -7.684596 0.8370274 22.7799 7.160063 3.267311 -23.04629 8.746827 6.313891 -19.62253 11.5792 86.33238 35.94968 -19.79849 -0 0 16.08533 -7.744211 8.342958 4.697033 5.5378 -19.51231 -1.670435 -94.64946 29.65514 22.72693 0 0 -16.1019 3.492685 17.77791 9.547522
0.7021704 104.943 3.057383 2.129599 -0.8397482 0.714824 1.233875 -9.771887 8.116142 -0 30.21742 -0 -5.273197 -17.10678 -1.508318 -7.946067 9.280487 -22.60183 -0 7.321 -0 6.79139 -15.88151 25.52614 -4.2162 -4.953563 5.090995 2.074858 9.134138 -7.638747 0.8445133 22.71351 7.154027 3.289103 -23.04422 8.700158 6.255309 -19.48621 11.58473 86.33374 35.94102 -19.80152 -0 0 15.9077 -7.929573 8.452354 4.790192 5.588511 -19.55313 -1.651915 -94.49118 29.54719 22.50449 0 0 -16.29257 3.503358 17.61984 9.534507
1.075668 105.6367 4.852954 2.062898 -0.6446742 0.8933086 1.283415 -9.686143 7.749666 -0 27.85484 -0 -5.29488 -16.57942 -1.062116 -7.852049 8.737467 -22.03613 -0 8.658643 -0 6.235355 -15.72057 24.88068 -4.124245 -4.846345 5.164488 2.113856 9.089932 -7.576427 0.8495286 22.6406 7.144061 3.312557 -23.02481 8.634648 6.18399 -19.32996 11.59511 86.32201 35.92929 -19.77829 -0 0 15.7076 -8.177455 8.592344 4.917102 5.637762 -19.59475 -1.632164 -94.30365 29.40646 22.25242 0 0 -16.49615 3.509088 17.42101 9.5265
1.467408 106.3162 6.862072 1.997951 -0.455239 1.044849 1.317176 -9.416476 7.342144 -0 25.26099 -0 -5.320832 -16.03871 -0.5678446 -7.743631 8.01509 -21.37802 -0 10.24805 -0 5.596567 -15.46419 24.15158 -4.019664 -4.730597 5.261448 2.144794 9.047783 -7.496834 0.8498223 22.56811 7.129311 3.335312 -22.98038 8.548587 6.102817 -19.16452 11.61166 86.291 35.91476 -19.71648 -0 0 15.50067 -8.489179 8.760429 5.079555 5.677388 -19.63141 -1.613322 -94.09677 29.23432 21.98971 0 0 -16.69051 3.506003 17.18609 9.527784
1.879383 106.9842 9.102429 1.941282 -0.2867234 1.166913 1.328964 -8.915313 6.90946 -0 22.54552 -0 -5.349479 -15.52024 -0.04463957 -7.62125 7.101705 -20.64313 -0 12.06248 -0 4.894583 -15.09635 23.36491 -3.905724 -4.611826 5.38322 2.162385 9.011549 -7.399618 0.8436405 22.50167 7.109137 3.355503 -22.90513 8.440925 6.014261 -18.99886 11.63536 86.23607 35.89753 -19.60665 -0 0 15.29982 -8.864932 8.95394 5.278643 5.700877 -19.65854 -1.597158 -93.87889 29.03244 21.73212 0 0 -16.85775 3.491173 16.91945 9.541615
2.313043 107.6453 11.58591 1.897707 -0.150208 1.257334 1.316177 -8.153463 6.46504 -0 19.79636 -0 -5.378929 -15.05036 0.4919764 -7.483749 5.994414 -19.84565 -0 14.07398 -0 4.147734 -14.60813 22.54375 -3.785192 -4.494312 5.530053 2.163002 8.98405 -7.285098 0.8298538 22.4453 7.083177 3.371834 -22.79551 8.311539 5.920364 -18.84002 11.66673 86.15443 35.87743 -19.44302 -0 0 15.11494 -9.303131 9.169894 5.514379 5.703734 -19.67299 -1.584996 -93.65672 28.80283 21.49173 0 0 -16.98492 3.462842 16.62539 9.569963
